<?xml version="1.0" standalone="no"?><svg xmlns="http://www.w3.org/2000/svg" viewBox="0 0 1440 320"><path fill="#fff" fill-opacity="1" d="M0,256L26.7,224C53.3,192,107,128,160,101.3C213.3,75,267,85,320,112C373.3,139,427,181,480,181.3C533.3,181,587,139,640,138.7C693.3,139,747,181,800,176C853.3,171,907,117,960,96C1013.3,75,1067,85,1120,106.7C1173.3,128,1227,160,1280,149.3C1333.3,139,1387,85,1413,58.7L1440,32L1440,320L1413.3,320C1386.7,320,1333,320,1280,320C1226.7,320,1173,320,1120,320C1066.7,320,1013,320,960,320C906.7,320,853,320,800,320C746.7,320,693,320,640,320C586.7,320,533,320,480,320C426.7,320,373,320,320,320C266.7,320,213,320,160,320C106.7,320,53,320,27,320L0,320Z"></path></svg>